<mxfile host="app.diagrams.net" agent="Mozilla/5.0 (Windows NT 10.0; Win64; x64) AppleWebKit/537.36 (KHTML, like Gecko) Chrome/130.0.0.0 Safari/537.36 Edg/130.0.0.0" version="24.8.3">
  <diagram name="Page-1" id="iffOGIMn6O8wgw5SYYy7">
    <mxGraphModel dx="1022" dy="932" grid="1" gridSize="10" guides="1" tooltips="1" connect="1" arrows="1" fold="1" page="1" pageScale="1" pageWidth="850" pageHeight="1100" math="0" shadow="0">
      <root>
        <mxCell id="0" />
        <mxCell id="1" parent="0" />
        <mxCell id="Cd6Zc7HZ7dgRGyo8CJAL-5" value="" style="rounded=1;whiteSpace=wrap;html=1;fillColor=#fff2cc;strokeColor=#d6b656;" parent="1" vertex="1">
          <mxGeometry x="130" y="270" width="590" height="100" as="geometry" />
        </mxCell>
        <mxCell id="Cd6Zc7HZ7dgRGyo8CJAL-7" value="" style="rounded=1;whiteSpace=wrap;html=1;fillColor=#fff2cc;strokeColor=#d6b656;" parent="1" vertex="1">
          <mxGeometry x="130" y="150" width="590" height="100" as="geometry" />
        </mxCell>
        <mxCell id="Cd6Zc7HZ7dgRGyo8CJAL-121" value="" style="rounded=1;whiteSpace=wrap;html=1;fillColor=#fff2cc;strokeColor=#d6b656;" parent="1" vertex="1">
          <mxGeometry x="130" y="390" width="590" height="100" as="geometry" />
        </mxCell>
        <mxCell id="Cd6Zc7HZ7dgRGyo8CJAL-136" value="" style="rounded=1;whiteSpace=wrap;html=1;fillColor=#fff2cc;strokeColor=#d6b656;" parent="1" vertex="1">
          <mxGeometry x="130" y="510" width="590" height="100" as="geometry" />
        </mxCell>
        <mxCell id="Cd6Zc7HZ7dgRGyo8CJAL-151" value="" style="rounded=1;whiteSpace=wrap;html=1;fillColor=#fff2cc;strokeColor=#d6b656;" parent="1" vertex="1">
          <mxGeometry x="130" y="630" width="590" height="100" as="geometry" />
        </mxCell>
        <mxCell id="Cd6Zc7HZ7dgRGyo8CJAL-166" value="" style="rounded=1;whiteSpace=wrap;html=1;fillColor=#fff2cc;strokeColor=#d6b656;" parent="1" vertex="1">
          <mxGeometry x="130" y="750" width="590" height="100" as="geometry" />
        </mxCell>
        <mxCell id="Cd6Zc7HZ7dgRGyo8CJAL-8" value="" style="endArrow=none;html=1;rounded=0;strokeWidth=1;dashed=1;dashPattern=1 1;" parent="1" edge="1">
          <mxGeometry width="50" height="50" relative="1" as="geometry">
            <mxPoint x="125" y="140" as="sourcePoint" />
            <mxPoint x="725" y="140" as="targetPoint" />
          </mxGeometry>
        </mxCell>
        <mxCell id="Cd6Zc7HZ7dgRGyo8CJAL-9" value="" style="endArrow=none;html=1;rounded=0;dashed=1;dashPattern=1 1;" parent="1" edge="1">
          <mxGeometry width="50" height="50" relative="1" as="geometry">
            <mxPoint x="245" y="840" as="sourcePoint" />
            <mxPoint x="245" y="120" as="targetPoint" />
          </mxGeometry>
        </mxCell>
        <mxCell id="Cd6Zc7HZ7dgRGyo8CJAL-10" value="" style="endArrow=none;html=1;rounded=0;dashed=1;dashPattern=1 1;" parent="1" edge="1">
          <mxGeometry width="50" height="50" relative="1" as="geometry">
            <mxPoint x="360" y="840" as="sourcePoint" />
            <mxPoint x="365" y="120" as="targetPoint" />
          </mxGeometry>
        </mxCell>
        <mxCell id="Cd6Zc7HZ7dgRGyo8CJAL-11" value="" style="endArrow=none;html=1;rounded=0;dashed=1;dashPattern=1 1;" parent="1" edge="1">
          <mxGeometry width="50" height="50" relative="1" as="geometry">
            <mxPoint x="485" y="845" as="sourcePoint" />
            <mxPoint x="485" y="120" as="targetPoint" />
          </mxGeometry>
        </mxCell>
        <mxCell id="Cd6Zc7HZ7dgRGyo8CJAL-12" value="" style="endArrow=classic;html=1;rounded=0;fillColor=#d5e8d4;strokeColor=#82b366;" parent="1" edge="1">
          <mxGeometry width="50" height="50" relative="1" as="geometry">
            <mxPoint x="125" y="60" as="sourcePoint" />
            <mxPoint x="725" y="60" as="targetPoint" />
          </mxGeometry>
        </mxCell>
        <mxCell id="Cd6Zc7HZ7dgRGyo8CJAL-13" value="Flow of Work" style="text;html=1;align=center;verticalAlign=middle;whiteSpace=wrap;rounded=0;fontStyle=1" parent="1" vertex="1">
          <mxGeometry x="385" y="30" width="80" height="30" as="geometry" />
        </mxCell>
        <mxCell id="Cd6Zc7HZ7dgRGyo8CJAL-14" value="&lt;b&gt;Raw Data&lt;/b&gt;" style="text;html=1;align=center;verticalAlign=middle;whiteSpace=wrap;rounded=0;" parent="1" vertex="1">
          <mxGeometry x="55" y="50" width="60" height="30" as="geometry" />
        </mxCell>
        <mxCell id="Cd6Zc7HZ7dgRGyo8CJAL-15" value="&lt;b&gt;Final Outputs&lt;/b&gt;" style="text;html=1;align=center;verticalAlign=middle;whiteSpace=wrap;rounded=0;" parent="1" vertex="1">
          <mxGeometry x="735" y="50" width="80" height="30" as="geometry" />
        </mxCell>
        <mxCell id="Cd6Zc7HZ7dgRGyo8CJAL-16" value="Data Ingestion" style="text;html=1;align=center;verticalAlign=middle;whiteSpace=wrap;rounded=0;" parent="1" vertex="1">
          <mxGeometry x="125" y="110" width="120" height="30" as="geometry" />
        </mxCell>
        <mxCell id="Cd6Zc7HZ7dgRGyo8CJAL-17" value="Data Processing" style="text;html=1;align=center;verticalAlign=middle;whiteSpace=wrap;rounded=0;" parent="1" vertex="1">
          <mxGeometry x="245" y="110" width="120" height="30" as="geometry" />
        </mxCell>
        <mxCell id="Cd6Zc7HZ7dgRGyo8CJAL-18" value="Elementary Indexes" style="text;html=1;align=center;verticalAlign=middle;whiteSpace=wrap;rounded=0;" parent="1" vertex="1">
          <mxGeometry x="365" y="110" width="120" height="30" as="geometry" />
        </mxCell>
        <mxCell id="Cd6Zc7HZ7dgRGyo8CJAL-19" value="" style="endArrow=none;html=1;rounded=0;dashed=1;dashPattern=1 1;" parent="1" edge="1">
          <mxGeometry width="50" height="50" relative="1" as="geometry">
            <mxPoint x="605" y="840" as="sourcePoint" />
            <mxPoint x="605" y="120" as="targetPoint" />
          </mxGeometry>
        </mxCell>
        <mxCell id="Cd6Zc7HZ7dgRGyo8CJAL-20" value="Aggregation" style="text;html=1;align=center;verticalAlign=middle;whiteSpace=wrap;rounded=0;" parent="1" vertex="1">
          <mxGeometry x="485" y="110" width="120" height="30" as="geometry" />
        </mxCell>
        <mxCell id="Cd6Zc7HZ7dgRGyo8CJAL-21" value="Finalization" style="text;html=1;align=center;verticalAlign=middle;whiteSpace=wrap;rounded=0;" parent="1" vertex="1">
          <mxGeometry x="605" y="110" width="120" height="30" as="geometry" />
        </mxCell>
        <mxCell id="Cd6Zc7HZ7dgRGyo8CJAL-22" style="edgeStyle=orthogonalEdgeStyle;rounded=0;orthogonalLoop=1;jettySize=auto;html=1;entryX=0;entryY=0.5;entryDx=0;entryDy=0;" parent="1" source="Cd6Zc7HZ7dgRGyo8CJAL-23" target="Cd6Zc7HZ7dgRGyo8CJAL-25" edge="1">
          <mxGeometry relative="1" as="geometry" />
        </mxCell>
        <mxCell id="Cd6Zc7HZ7dgRGyo8CJAL-23" value="&lt;b&gt;System&lt;/b&gt;" style="ellipse;whiteSpace=wrap;html=1;aspect=fixed;fillColor=#d5e8d4;strokeColor=#82b366;" parent="1" vertex="1">
          <mxGeometry x="160" y="160" width="50" height="50" as="geometry" />
        </mxCell>
        <mxCell id="Cd6Zc7HZ7dgRGyo8CJAL-24" style="edgeStyle=orthogonalEdgeStyle;rounded=0;orthogonalLoop=1;jettySize=auto;html=1;entryX=0;entryY=0.5;entryDx=0;entryDy=0;" parent="1" source="Cd6Zc7HZ7dgRGyo8CJAL-25" target="Cd6Zc7HZ7dgRGyo8CJAL-29" edge="1">
          <mxGeometry relative="1" as="geometry" />
        </mxCell>
        <mxCell id="Cd6Zc7HZ7dgRGyo8CJAL-25" value="&lt;b&gt;System&lt;/b&gt;" style="ellipse;whiteSpace=wrap;html=1;aspect=fixed;fillColor=#d5e8d4;strokeColor=#82b366;" parent="1" vertex="1">
          <mxGeometry x="280" y="160" width="50" height="50" as="geometry" />
        </mxCell>
        <mxCell id="Cd6Zc7HZ7dgRGyo8CJAL-26" style="edgeStyle=orthogonalEdgeStyle;rounded=0;orthogonalLoop=1;jettySize=auto;html=1;curved=1;" parent="1" source="Cd6Zc7HZ7dgRGyo8CJAL-27" target="Cd6Zc7HZ7dgRGyo8CJAL-23" edge="1">
          <mxGeometry relative="1" as="geometry" />
        </mxCell>
        <mxCell id="Cd6Zc7HZ7dgRGyo8CJAL-27" value="&lt;b&gt;Input&lt;/b&gt;" style="text;html=1;align=center;verticalAlign=middle;whiteSpace=wrap;rounded=0;strokeColor=default;" parent="1" vertex="1">
          <mxGeometry x="25" y="150" width="60" height="30" as="geometry" />
        </mxCell>
        <mxCell id="Cd6Zc7HZ7dgRGyo8CJAL-28" style="edgeStyle=orthogonalEdgeStyle;rounded=0;orthogonalLoop=1;jettySize=auto;html=1;" parent="1" source="Cd6Zc7HZ7dgRGyo8CJAL-29" target="Cd6Zc7HZ7dgRGyo8CJAL-31" edge="1">
          <mxGeometry relative="1" as="geometry" />
        </mxCell>
        <mxCell id="Cd6Zc7HZ7dgRGyo8CJAL-29" value="&lt;b&gt;System&lt;/b&gt;" style="ellipse;whiteSpace=wrap;html=1;aspect=fixed;fillColor=#d5e8d4;strokeColor=#82b366;" parent="1" vertex="1">
          <mxGeometry x="400" y="160" width="50" height="50" as="geometry" />
        </mxCell>
        <mxCell id="Cd6Zc7HZ7dgRGyo8CJAL-30" style="edgeStyle=orthogonalEdgeStyle;rounded=0;orthogonalLoop=1;jettySize=auto;html=1;" parent="1" source="Cd6Zc7HZ7dgRGyo8CJAL-31" target="Cd6Zc7HZ7dgRGyo8CJAL-33" edge="1">
          <mxGeometry relative="1" as="geometry" />
        </mxCell>
        <mxCell id="Cd6Zc7HZ7dgRGyo8CJAL-31" value="&lt;b&gt;System&lt;/b&gt;" style="ellipse;whiteSpace=wrap;html=1;aspect=fixed;fillColor=#d5e8d4;strokeColor=#82b366;" parent="1" vertex="1">
          <mxGeometry x="520" y="160" width="50" height="50" as="geometry" />
        </mxCell>
        <mxCell id="e61ig944i2-fvOtsipmM-8" style="edgeStyle=orthogonalEdgeStyle;rounded=0;orthogonalLoop=1;jettySize=auto;html=1;entryX=0;entryY=0.5;entryDx=0;entryDy=0;curved=1;" edge="1" parent="1" source="Cd6Zc7HZ7dgRGyo8CJAL-33" target="Cd6Zc7HZ7dgRGyo8CJAL-150">
          <mxGeometry relative="1" as="geometry" />
        </mxCell>
        <mxCell id="Cd6Zc7HZ7dgRGyo8CJAL-33" value="&lt;b&gt;System&lt;/b&gt;" style="ellipse;whiteSpace=wrap;html=1;aspect=fixed;fillColor=#d5e8d4;strokeColor=#82b366;" parent="1" vertex="1">
          <mxGeometry x="640" y="160" width="50" height="50" as="geometry" />
        </mxCell>
        <mxCell id="Cd6Zc7HZ7dgRGyo8CJAL-35" value="Team 1" style="text;html=1;align=center;verticalAlign=middle;whiteSpace=wrap;rounded=0;" parent="1" vertex="1">
          <mxGeometry x="632.5" y="220" width="65" height="30" as="geometry" />
        </mxCell>
        <mxCell id="Cd6Zc7HZ7dgRGyo8CJAL-36" style="edgeStyle=orthogonalEdgeStyle;rounded=0;orthogonalLoop=1;jettySize=auto;html=1;entryX=0;entryY=0.5;entryDx=0;entryDy=0;" parent="1" source="Cd6Zc7HZ7dgRGyo8CJAL-37" target="Cd6Zc7HZ7dgRGyo8CJAL-39" edge="1">
          <mxGeometry relative="1" as="geometry" />
        </mxCell>
        <mxCell id="Cd6Zc7HZ7dgRGyo8CJAL-37" value="&lt;b&gt;System&lt;/b&gt;" style="ellipse;whiteSpace=wrap;html=1;aspect=fixed;fillColor=#d5e8d4;strokeColor=#82b366;" parent="1" vertex="1">
          <mxGeometry x="160" y="280" width="50" height="50" as="geometry" />
        </mxCell>
        <mxCell id="Cd6Zc7HZ7dgRGyo8CJAL-38" style="edgeStyle=orthogonalEdgeStyle;rounded=0;orthogonalLoop=1;jettySize=auto;html=1;" parent="1" source="Cd6Zc7HZ7dgRGyo8CJAL-39" target="Cd6Zc7HZ7dgRGyo8CJAL-41" edge="1">
          <mxGeometry relative="1" as="geometry" />
        </mxCell>
        <mxCell id="Cd6Zc7HZ7dgRGyo8CJAL-39" value="&lt;b&gt;System&lt;/b&gt;" style="ellipse;whiteSpace=wrap;html=1;aspect=fixed;fillColor=#d5e8d4;strokeColor=#82b366;" parent="1" vertex="1">
          <mxGeometry x="280" y="280" width="50" height="50" as="geometry" />
        </mxCell>
        <mxCell id="Cd6Zc7HZ7dgRGyo8CJAL-40" style="edgeStyle=orthogonalEdgeStyle;rounded=0;orthogonalLoop=1;jettySize=auto;html=1;" parent="1" source="Cd6Zc7HZ7dgRGyo8CJAL-41" target="Cd6Zc7HZ7dgRGyo8CJAL-43" edge="1">
          <mxGeometry relative="1" as="geometry" />
        </mxCell>
        <mxCell id="Cd6Zc7HZ7dgRGyo8CJAL-41" value="&lt;b&gt;System&lt;/b&gt;" style="ellipse;whiteSpace=wrap;html=1;aspect=fixed;fillColor=#d5e8d4;strokeColor=#82b366;" parent="1" vertex="1">
          <mxGeometry x="400" y="280" width="50" height="50" as="geometry" />
        </mxCell>
        <mxCell id="Cd6Zc7HZ7dgRGyo8CJAL-42" style="edgeStyle=orthogonalEdgeStyle;rounded=0;orthogonalLoop=1;jettySize=auto;html=1;entryX=0;entryY=0.5;entryDx=0;entryDy=0;" parent="1" source="Cd6Zc7HZ7dgRGyo8CJAL-43" target="Cd6Zc7HZ7dgRGyo8CJAL-45" edge="1">
          <mxGeometry relative="1" as="geometry" />
        </mxCell>
        <mxCell id="Cd6Zc7HZ7dgRGyo8CJAL-43" value="&lt;b&gt;System&lt;/b&gt;" style="ellipse;whiteSpace=wrap;html=1;aspect=fixed;fillColor=#d5e8d4;strokeColor=#82b366;" parent="1" vertex="1">
          <mxGeometry x="520" y="280" width="50" height="50" as="geometry" />
        </mxCell>
        <mxCell id="e61ig944i2-fvOtsipmM-3" style="edgeStyle=orthogonalEdgeStyle;rounded=0;orthogonalLoop=1;jettySize=auto;html=1;entryX=0;entryY=0.5;entryDx=0;entryDy=0;curved=1;" edge="1" parent="1" source="Cd6Zc7HZ7dgRGyo8CJAL-45" target="Cd6Zc7HZ7dgRGyo8CJAL-150">
          <mxGeometry relative="1" as="geometry" />
        </mxCell>
        <mxCell id="Cd6Zc7HZ7dgRGyo8CJAL-45" value="&lt;b&gt;System&lt;/b&gt;" style="ellipse;whiteSpace=wrap;html=1;aspect=fixed;fillColor=#d5e8d4;strokeColor=#82b366;" parent="1" vertex="1">
          <mxGeometry x="640" y="280" width="50" height="50" as="geometry" />
        </mxCell>
        <mxCell id="Cd6Zc7HZ7dgRGyo8CJAL-47" style="edgeStyle=orthogonalEdgeStyle;rounded=0;orthogonalLoop=1;jettySize=auto;html=1;" parent="1" source="Cd6Zc7HZ7dgRGyo8CJAL-48" target="Cd6Zc7HZ7dgRGyo8CJAL-37" edge="1">
          <mxGeometry relative="1" as="geometry" />
        </mxCell>
        <mxCell id="Cd6Zc7HZ7dgRGyo8CJAL-48" value="&lt;b&gt;Input&lt;/b&gt;" style="text;html=1;align=center;verticalAlign=middle;whiteSpace=wrap;rounded=0;strokeColor=default;" parent="1" vertex="1">
          <mxGeometry x="25" y="290" width="60" height="30" as="geometry" />
        </mxCell>
        <mxCell id="Cd6Zc7HZ7dgRGyo8CJAL-98" style="edgeStyle=orthogonalEdgeStyle;rounded=0;orthogonalLoop=1;jettySize=auto;html=1;curved=1;" parent="1" source="Cd6Zc7HZ7dgRGyo8CJAL-99" target="Cd6Zc7HZ7dgRGyo8CJAL-23" edge="1">
          <mxGeometry relative="1" as="geometry" />
        </mxCell>
        <mxCell id="Cd6Zc7HZ7dgRGyo8CJAL-99" value="&lt;b&gt;Input&lt;/b&gt;" style="text;html=1;align=center;verticalAlign=middle;whiteSpace=wrap;rounded=0;strokeColor=default;" parent="1" vertex="1">
          <mxGeometry x="25" y="200" width="60" height="30" as="geometry" />
        </mxCell>
        <mxCell id="Cd6Zc7HZ7dgRGyo8CJAL-122" style="edgeStyle=orthogonalEdgeStyle;rounded=0;orthogonalLoop=1;jettySize=auto;html=1;entryX=0;entryY=0.5;entryDx=0;entryDy=0;" parent="1" source="Cd6Zc7HZ7dgRGyo8CJAL-123" target="Cd6Zc7HZ7dgRGyo8CJAL-125" edge="1">
          <mxGeometry relative="1" as="geometry" />
        </mxCell>
        <mxCell id="Cd6Zc7HZ7dgRGyo8CJAL-123" value="&lt;b&gt;System&lt;/b&gt;" style="ellipse;whiteSpace=wrap;html=1;aspect=fixed;fillColor=#d5e8d4;strokeColor=#82b366;" parent="1" vertex="1">
          <mxGeometry x="160" y="400" width="50" height="50" as="geometry" />
        </mxCell>
        <mxCell id="Cd6Zc7HZ7dgRGyo8CJAL-124" style="edgeStyle=orthogonalEdgeStyle;rounded=0;orthogonalLoop=1;jettySize=auto;html=1;" parent="1" source="Cd6Zc7HZ7dgRGyo8CJAL-125" target="Cd6Zc7HZ7dgRGyo8CJAL-127" edge="1">
          <mxGeometry relative="1" as="geometry" />
        </mxCell>
        <mxCell id="Cd6Zc7HZ7dgRGyo8CJAL-125" value="&lt;b&gt;System&lt;/b&gt;" style="ellipse;whiteSpace=wrap;html=1;aspect=fixed;fillColor=#d5e8d4;strokeColor=#82b366;" parent="1" vertex="1">
          <mxGeometry x="280" y="400" width="50" height="50" as="geometry" />
        </mxCell>
        <mxCell id="Cd6Zc7HZ7dgRGyo8CJAL-126" style="edgeStyle=orthogonalEdgeStyle;rounded=0;orthogonalLoop=1;jettySize=auto;html=1;" parent="1" source="Cd6Zc7HZ7dgRGyo8CJAL-127" target="Cd6Zc7HZ7dgRGyo8CJAL-129" edge="1">
          <mxGeometry relative="1" as="geometry" />
        </mxCell>
        <mxCell id="Cd6Zc7HZ7dgRGyo8CJAL-127" value="&lt;b&gt;System&lt;/b&gt;" style="ellipse;whiteSpace=wrap;html=1;aspect=fixed;fillColor=#d5e8d4;strokeColor=#82b366;" parent="1" vertex="1">
          <mxGeometry x="400" y="400" width="50" height="50" as="geometry" />
        </mxCell>
        <mxCell id="Cd6Zc7HZ7dgRGyo8CJAL-128" style="edgeStyle=orthogonalEdgeStyle;rounded=0;orthogonalLoop=1;jettySize=auto;html=1;entryX=0;entryY=0.5;entryDx=0;entryDy=0;" parent="1" source="Cd6Zc7HZ7dgRGyo8CJAL-129" target="Cd6Zc7HZ7dgRGyo8CJAL-131" edge="1">
          <mxGeometry relative="1" as="geometry" />
        </mxCell>
        <mxCell id="Cd6Zc7HZ7dgRGyo8CJAL-129" value="&lt;b&gt;System&lt;/b&gt;" style="ellipse;whiteSpace=wrap;html=1;aspect=fixed;fillColor=#d5e8d4;strokeColor=#82b366;" parent="1" vertex="1">
          <mxGeometry x="520" y="400" width="50" height="50" as="geometry" />
        </mxCell>
        <mxCell id="e61ig944i2-fvOtsipmM-1" style="edgeStyle=orthogonalEdgeStyle;rounded=0;orthogonalLoop=1;jettySize=auto;html=1;entryX=0;entryY=0.5;entryDx=0;entryDy=0;curved=1;" edge="1" parent="1" source="Cd6Zc7HZ7dgRGyo8CJAL-131" target="Cd6Zc7HZ7dgRGyo8CJAL-150">
          <mxGeometry relative="1" as="geometry" />
        </mxCell>
        <mxCell id="Cd6Zc7HZ7dgRGyo8CJAL-131" value="&lt;b&gt;System&lt;/b&gt;" style="ellipse;whiteSpace=wrap;html=1;aspect=fixed;fillColor=#d5e8d4;strokeColor=#82b366;" parent="1" vertex="1">
          <mxGeometry x="640" y="400" width="50" height="50" as="geometry" />
        </mxCell>
        <mxCell id="Cd6Zc7HZ7dgRGyo8CJAL-133" style="edgeStyle=orthogonalEdgeStyle;rounded=0;orthogonalLoop=1;jettySize=auto;html=1;" parent="1" source="Cd6Zc7HZ7dgRGyo8CJAL-134" target="Cd6Zc7HZ7dgRGyo8CJAL-123" edge="1">
          <mxGeometry relative="1" as="geometry" />
        </mxCell>
        <mxCell id="Cd6Zc7HZ7dgRGyo8CJAL-134" value="&lt;b&gt;Input&lt;/b&gt;" style="text;html=1;align=center;verticalAlign=middle;whiteSpace=wrap;rounded=0;strokeColor=default;" parent="1" vertex="1">
          <mxGeometry x="25" y="410" width="60" height="30" as="geometry" />
        </mxCell>
        <mxCell id="Cd6Zc7HZ7dgRGyo8CJAL-137" style="edgeStyle=orthogonalEdgeStyle;rounded=0;orthogonalLoop=1;jettySize=auto;html=1;entryX=0;entryY=0.5;entryDx=0;entryDy=0;" parent="1" source="Cd6Zc7HZ7dgRGyo8CJAL-138" target="Cd6Zc7HZ7dgRGyo8CJAL-140" edge="1">
          <mxGeometry relative="1" as="geometry" />
        </mxCell>
        <mxCell id="Cd6Zc7HZ7dgRGyo8CJAL-138" value="&lt;b&gt;System&lt;/b&gt;" style="ellipse;whiteSpace=wrap;html=1;aspect=fixed;fillColor=#d5e8d4;strokeColor=#82b366;" parent="1" vertex="1">
          <mxGeometry x="160" y="520" width="50" height="50" as="geometry" />
        </mxCell>
        <mxCell id="Cd6Zc7HZ7dgRGyo8CJAL-139" style="edgeStyle=orthogonalEdgeStyle;rounded=0;orthogonalLoop=1;jettySize=auto;html=1;" parent="1" source="Cd6Zc7HZ7dgRGyo8CJAL-140" target="Cd6Zc7HZ7dgRGyo8CJAL-142" edge="1">
          <mxGeometry relative="1" as="geometry" />
        </mxCell>
        <mxCell id="Cd6Zc7HZ7dgRGyo8CJAL-140" value="&lt;b&gt;System&lt;/b&gt;" style="ellipse;whiteSpace=wrap;html=1;aspect=fixed;fillColor=#d5e8d4;strokeColor=#82b366;" parent="1" vertex="1">
          <mxGeometry x="280" y="520" width="50" height="50" as="geometry" />
        </mxCell>
        <mxCell id="Cd6Zc7HZ7dgRGyo8CJAL-141" style="edgeStyle=orthogonalEdgeStyle;rounded=0;orthogonalLoop=1;jettySize=auto;html=1;" parent="1" source="Cd6Zc7HZ7dgRGyo8CJAL-142" target="Cd6Zc7HZ7dgRGyo8CJAL-144" edge="1">
          <mxGeometry relative="1" as="geometry" />
        </mxCell>
        <mxCell id="Cd6Zc7HZ7dgRGyo8CJAL-142" value="&lt;b&gt;System&lt;/b&gt;" style="ellipse;whiteSpace=wrap;html=1;aspect=fixed;fillColor=#d5e8d4;strokeColor=#82b366;" parent="1" vertex="1">
          <mxGeometry x="400" y="520" width="50" height="50" as="geometry" />
        </mxCell>
        <mxCell id="Cd6Zc7HZ7dgRGyo8CJAL-143" style="edgeStyle=orthogonalEdgeStyle;rounded=0;orthogonalLoop=1;jettySize=auto;html=1;entryX=0;entryY=0.5;entryDx=0;entryDy=0;" parent="1" source="Cd6Zc7HZ7dgRGyo8CJAL-144" target="Cd6Zc7HZ7dgRGyo8CJAL-146" edge="1">
          <mxGeometry relative="1" as="geometry" />
        </mxCell>
        <mxCell id="Cd6Zc7HZ7dgRGyo8CJAL-144" value="&lt;b&gt;System&lt;/b&gt;" style="ellipse;whiteSpace=wrap;html=1;aspect=fixed;fillColor=#d5e8d4;strokeColor=#82b366;" parent="1" vertex="1">
          <mxGeometry x="520" y="520" width="50" height="50" as="geometry" />
        </mxCell>
        <mxCell id="Cd6Zc7HZ7dgRGyo8CJAL-145" style="edgeStyle=orthogonalEdgeStyle;rounded=0;orthogonalLoop=1;jettySize=auto;html=1;entryX=0;entryY=0.5;entryDx=0;entryDy=0;curved=1;" parent="1" source="Cd6Zc7HZ7dgRGyo8CJAL-146" target="Cd6Zc7HZ7dgRGyo8CJAL-150" edge="1">
          <mxGeometry relative="1" as="geometry" />
        </mxCell>
        <mxCell id="Cd6Zc7HZ7dgRGyo8CJAL-146" value="&lt;b&gt;System&lt;/b&gt;" style="ellipse;whiteSpace=wrap;html=1;aspect=fixed;fillColor=#d5e8d4;strokeColor=#82b366;" parent="1" vertex="1">
          <mxGeometry x="640" y="520" width="50" height="50" as="geometry" />
        </mxCell>
        <mxCell id="Cd6Zc7HZ7dgRGyo8CJAL-148" style="edgeStyle=orthogonalEdgeStyle;rounded=0;orthogonalLoop=1;jettySize=auto;html=1;" parent="1" source="Cd6Zc7HZ7dgRGyo8CJAL-149" target="Cd6Zc7HZ7dgRGyo8CJAL-138" edge="1">
          <mxGeometry relative="1" as="geometry" />
        </mxCell>
        <mxCell id="Cd6Zc7HZ7dgRGyo8CJAL-149" value="&lt;b&gt;Input&lt;/b&gt;" style="text;html=1;align=center;verticalAlign=middle;whiteSpace=wrap;rounded=0;strokeColor=default;" parent="1" vertex="1">
          <mxGeometry x="25" y="530" width="60" height="30" as="geometry" />
        </mxCell>
        <mxCell id="Cd6Zc7HZ7dgRGyo8CJAL-150" value="&lt;b&gt;CPI&lt;/b&gt;" style="text;html=1;align=center;verticalAlign=middle;whiteSpace=wrap;rounded=0;strokeColor=default;" parent="1" vertex="1">
          <mxGeometry x="770" y="480" width="60" height="30" as="geometry" />
        </mxCell>
        <mxCell id="Cd6Zc7HZ7dgRGyo8CJAL-152" style="edgeStyle=orthogonalEdgeStyle;rounded=0;orthogonalLoop=1;jettySize=auto;html=1;entryX=0;entryY=0.5;entryDx=0;entryDy=0;" parent="1" source="Cd6Zc7HZ7dgRGyo8CJAL-153" target="Cd6Zc7HZ7dgRGyo8CJAL-155" edge="1">
          <mxGeometry relative="1" as="geometry" />
        </mxCell>
        <mxCell id="Cd6Zc7HZ7dgRGyo8CJAL-153" value="&lt;b&gt;System&lt;/b&gt;" style="ellipse;whiteSpace=wrap;html=1;aspect=fixed;fillColor=#d5e8d4;strokeColor=#82b366;" parent="1" vertex="1">
          <mxGeometry x="160" y="640" width="50" height="50" as="geometry" />
        </mxCell>
        <mxCell id="Cd6Zc7HZ7dgRGyo8CJAL-154" style="edgeStyle=orthogonalEdgeStyle;rounded=0;orthogonalLoop=1;jettySize=auto;html=1;" parent="1" source="Cd6Zc7HZ7dgRGyo8CJAL-155" target="Cd6Zc7HZ7dgRGyo8CJAL-157" edge="1">
          <mxGeometry relative="1" as="geometry" />
        </mxCell>
        <mxCell id="Cd6Zc7HZ7dgRGyo8CJAL-155" value="&lt;b&gt;System&lt;/b&gt;" style="ellipse;whiteSpace=wrap;html=1;aspect=fixed;fillColor=#d5e8d4;strokeColor=#82b366;" parent="1" vertex="1">
          <mxGeometry x="280" y="640" width="50" height="50" as="geometry" />
        </mxCell>
        <mxCell id="Cd6Zc7HZ7dgRGyo8CJAL-156" style="edgeStyle=orthogonalEdgeStyle;rounded=0;orthogonalLoop=1;jettySize=auto;html=1;" parent="1" source="Cd6Zc7HZ7dgRGyo8CJAL-157" target="Cd6Zc7HZ7dgRGyo8CJAL-159" edge="1">
          <mxGeometry relative="1" as="geometry" />
        </mxCell>
        <mxCell id="Cd6Zc7HZ7dgRGyo8CJAL-157" value="&lt;b&gt;System&lt;/b&gt;" style="ellipse;whiteSpace=wrap;html=1;aspect=fixed;fillColor=#d5e8d4;strokeColor=#82b366;" parent="1" vertex="1">
          <mxGeometry x="400" y="640" width="50" height="50" as="geometry" />
        </mxCell>
        <mxCell id="Cd6Zc7HZ7dgRGyo8CJAL-158" style="edgeStyle=orthogonalEdgeStyle;rounded=0;orthogonalLoop=1;jettySize=auto;html=1;entryX=0;entryY=0.5;entryDx=0;entryDy=0;" parent="1" source="Cd6Zc7HZ7dgRGyo8CJAL-159" target="Cd6Zc7HZ7dgRGyo8CJAL-161" edge="1">
          <mxGeometry relative="1" as="geometry" />
        </mxCell>
        <mxCell id="Cd6Zc7HZ7dgRGyo8CJAL-159" value="&lt;b&gt;System&lt;/b&gt;" style="ellipse;whiteSpace=wrap;html=1;aspect=fixed;fillColor=#d5e8d4;strokeColor=#82b366;" parent="1" vertex="1">
          <mxGeometry x="520" y="640" width="50" height="50" as="geometry" />
        </mxCell>
        <mxCell id="e61ig944i2-fvOtsipmM-4" style="edgeStyle=orthogonalEdgeStyle;rounded=0;orthogonalLoop=1;jettySize=auto;html=1;entryX=0;entryY=0.5;entryDx=0;entryDy=0;curved=1;" edge="1" parent="1" source="Cd6Zc7HZ7dgRGyo8CJAL-161" target="Cd6Zc7HZ7dgRGyo8CJAL-150">
          <mxGeometry relative="1" as="geometry" />
        </mxCell>
        <mxCell id="Cd6Zc7HZ7dgRGyo8CJAL-161" value="&lt;b&gt;System&lt;/b&gt;" style="ellipse;whiteSpace=wrap;html=1;aspect=fixed;fillColor=#d5e8d4;strokeColor=#82b366;" parent="1" vertex="1">
          <mxGeometry x="640" y="640" width="50" height="50" as="geometry" />
        </mxCell>
        <mxCell id="Cd6Zc7HZ7dgRGyo8CJAL-163" style="edgeStyle=orthogonalEdgeStyle;rounded=0;orthogonalLoop=1;jettySize=auto;html=1;" parent="1" source="Cd6Zc7HZ7dgRGyo8CJAL-164" target="Cd6Zc7HZ7dgRGyo8CJAL-153" edge="1">
          <mxGeometry relative="1" as="geometry" />
        </mxCell>
        <mxCell id="Cd6Zc7HZ7dgRGyo8CJAL-164" value="&lt;b&gt;Input&lt;/b&gt;" style="text;html=1;align=center;verticalAlign=middle;whiteSpace=wrap;rounded=0;strokeColor=default;" parent="1" vertex="1">
          <mxGeometry x="25" y="650" width="60" height="30" as="geometry" />
        </mxCell>
        <mxCell id="Cd6Zc7HZ7dgRGyo8CJAL-167" style="edgeStyle=orthogonalEdgeStyle;rounded=0;orthogonalLoop=1;jettySize=auto;html=1;entryX=0;entryY=0.5;entryDx=0;entryDy=0;" parent="1" source="Cd6Zc7HZ7dgRGyo8CJAL-168" target="Cd6Zc7HZ7dgRGyo8CJAL-170" edge="1">
          <mxGeometry relative="1" as="geometry" />
        </mxCell>
        <mxCell id="Cd6Zc7HZ7dgRGyo8CJAL-168" value="&lt;b&gt;System&lt;/b&gt;" style="ellipse;whiteSpace=wrap;html=1;aspect=fixed;fillColor=#d5e8d4;strokeColor=#82b366;" parent="1" vertex="1">
          <mxGeometry x="160" y="760" width="50" height="50" as="geometry" />
        </mxCell>
        <mxCell id="Cd6Zc7HZ7dgRGyo8CJAL-169" style="edgeStyle=orthogonalEdgeStyle;rounded=0;orthogonalLoop=1;jettySize=auto;html=1;" parent="1" source="Cd6Zc7HZ7dgRGyo8CJAL-170" target="Cd6Zc7HZ7dgRGyo8CJAL-172" edge="1">
          <mxGeometry relative="1" as="geometry" />
        </mxCell>
        <mxCell id="Cd6Zc7HZ7dgRGyo8CJAL-170" value="&lt;b&gt;System&lt;/b&gt;" style="ellipse;whiteSpace=wrap;html=1;aspect=fixed;fillColor=#d5e8d4;strokeColor=#82b366;" parent="1" vertex="1">
          <mxGeometry x="280" y="760" width="50" height="50" as="geometry" />
        </mxCell>
        <mxCell id="Cd6Zc7HZ7dgRGyo8CJAL-171" style="edgeStyle=orthogonalEdgeStyle;rounded=0;orthogonalLoop=1;jettySize=auto;html=1;" parent="1" source="Cd6Zc7HZ7dgRGyo8CJAL-172" target="Cd6Zc7HZ7dgRGyo8CJAL-174" edge="1">
          <mxGeometry relative="1" as="geometry" />
        </mxCell>
        <mxCell id="Cd6Zc7HZ7dgRGyo8CJAL-172" value="&lt;b&gt;System&lt;/b&gt;" style="ellipse;whiteSpace=wrap;html=1;aspect=fixed;fillColor=#d5e8d4;strokeColor=#82b366;" parent="1" vertex="1">
          <mxGeometry x="400" y="760" width="50" height="50" as="geometry" />
        </mxCell>
        <mxCell id="Cd6Zc7HZ7dgRGyo8CJAL-173" style="edgeStyle=orthogonalEdgeStyle;rounded=0;orthogonalLoop=1;jettySize=auto;html=1;entryX=0;entryY=0.5;entryDx=0;entryDy=0;" parent="1" source="Cd6Zc7HZ7dgRGyo8CJAL-174" target="Cd6Zc7HZ7dgRGyo8CJAL-176" edge="1">
          <mxGeometry relative="1" as="geometry" />
        </mxCell>
        <mxCell id="Cd6Zc7HZ7dgRGyo8CJAL-174" value="&lt;b&gt;System&lt;/b&gt;" style="ellipse;whiteSpace=wrap;html=1;aspect=fixed;fillColor=#d5e8d4;strokeColor=#82b366;" parent="1" vertex="1">
          <mxGeometry x="520" y="760" width="50" height="50" as="geometry" />
        </mxCell>
        <mxCell id="e61ig944i2-fvOtsipmM-5" style="edgeStyle=orthogonalEdgeStyle;rounded=0;orthogonalLoop=1;jettySize=auto;html=1;entryX=0;entryY=0.5;entryDx=0;entryDy=0;curved=1;" edge="1" parent="1" source="Cd6Zc7HZ7dgRGyo8CJAL-176" target="Cd6Zc7HZ7dgRGyo8CJAL-150">
          <mxGeometry relative="1" as="geometry" />
        </mxCell>
        <mxCell id="Cd6Zc7HZ7dgRGyo8CJAL-176" value="&lt;b&gt;System&lt;/b&gt;" style="ellipse;whiteSpace=wrap;html=1;aspect=fixed;fillColor=#d5e8d4;strokeColor=#82b366;" parent="1" vertex="1">
          <mxGeometry x="640" y="760" width="50" height="50" as="geometry" />
        </mxCell>
        <mxCell id="Cd6Zc7HZ7dgRGyo8CJAL-178" style="edgeStyle=orthogonalEdgeStyle;rounded=0;orthogonalLoop=1;jettySize=auto;html=1;" parent="1" source="Cd6Zc7HZ7dgRGyo8CJAL-179" target="Cd6Zc7HZ7dgRGyo8CJAL-168" edge="1">
          <mxGeometry relative="1" as="geometry" />
        </mxCell>
        <mxCell id="Cd6Zc7HZ7dgRGyo8CJAL-179" value="&lt;b&gt;Input&lt;/b&gt;" style="text;html=1;align=center;verticalAlign=middle;whiteSpace=wrap;rounded=0;strokeColor=default;" parent="1" vertex="1">
          <mxGeometry x="25" y="770" width="60" height="30" as="geometry" />
        </mxCell>
        <mxCell id="Cd6Zc7HZ7dgRGyo8CJAL-181" value="Team 1" style="text;html=1;align=center;verticalAlign=middle;whiteSpace=wrap;rounded=0;" parent="1" vertex="1">
          <mxGeometry x="632.5" y="340" width="65" height="30" as="geometry" />
        </mxCell>
        <mxCell id="Cd6Zc7HZ7dgRGyo8CJAL-182" value="Team 2" style="text;html=1;align=center;verticalAlign=middle;whiteSpace=wrap;rounded=0;" parent="1" vertex="1">
          <mxGeometry x="632.5" y="460" width="65" height="30" as="geometry" />
        </mxCell>
        <mxCell id="Cd6Zc7HZ7dgRGyo8CJAL-183" value="Team 3" style="text;html=1;align=center;verticalAlign=middle;whiteSpace=wrap;rounded=0;" parent="1" vertex="1">
          <mxGeometry x="632.5" y="580" width="65" height="30" as="geometry" />
        </mxCell>
        <mxCell id="Cd6Zc7HZ7dgRGyo8CJAL-184" value="Team 3" style="text;html=1;align=center;verticalAlign=middle;whiteSpace=wrap;rounded=0;" parent="1" vertex="1">
          <mxGeometry x="632.5" y="700" width="65" height="30" as="geometry" />
        </mxCell>
        <mxCell id="Cd6Zc7HZ7dgRGyo8CJAL-185" value="Team 3" style="text;html=1;align=center;verticalAlign=middle;whiteSpace=wrap;rounded=0;" parent="1" vertex="1">
          <mxGeometry x="632.5" y="820" width="65" height="30" as="geometry" />
        </mxCell>
      </root>
    </mxGraphModel>
  </diagram>
</mxfile>
